<?xml version="1.0" encoding="UTF-8" standalone="no"?>
<!DOCTYPE svg PUBLIC "-//W3C//DTD SVG 1.1//EN" "http://www.w3.org/Graphics/SVG/1.1/DTD/svg11.dtd">
<svg width="100%" height="100%" viewBox="0 0 833 833" version="1.1" xmlns="http://www.w3.org/2000/svg" xmlns:xlink="http://www.w3.org/1999/xlink" xml:space="preserve" xmlns:serif="http://www.serif.com/" style="fill-rule:evenodd;clip-rule:evenodd;stroke-miterlimit:10;">
    <g transform="matrix(1,0,0,1,-1021,-387)">
        <g id="relu-figure">
            <g transform="matrix(2,0,0,2,1041.65,399.413)">
                <path d="M99.5,0L99.5,400" style="fill:none;fill-rule:nonzero;stroke:black;stroke-opacity:0.3;stroke-width:1px;"/>
            </g>
            <g transform="matrix(2,0,0,2,1041.65,399.413)">
                <path d="M299.5,0L299.5,400" style="fill:none;fill-rule:nonzero;stroke:black;stroke-opacity:0.3;stroke-width:1px;"/>
            </g>
            <g transform="matrix(2,0,0,2,1041.65,399.413)">
                <path d="M0,299.5L400,299.5" style="fill:none;fill-rule:nonzero;stroke:black;stroke-opacity:0.3;stroke-width:1px;"/>
            </g>
            <g transform="matrix(2,0,0,2,1041.65,399.413)">
                <path d="M0,99.5L400,99.5" style="fill:none;fill-rule:nonzero;stroke:black;stroke-opacity:0.3;stroke-width:1px;"/>
            </g>
            <g transform="matrix(2,0,0,2,1041.65,399.413)">
                <path d="M99.5,0L99.5,400" style="fill:none;fill-rule:nonzero;stroke:black;stroke-opacity:0.43;stroke-width:1px;"/>
            </g>
            <g transform="matrix(2,0,0,2,1041.65,399.413)">
                <path d="M299.5,0L299.5,400" style="fill:none;fill-rule:nonzero;stroke:black;stroke-opacity:0.43;stroke-width:1px;"/>
            </g>
            <g transform="matrix(2,0,0,2,1041.65,399.413)">
                <path d="M0,299.5L400,299.5" style="fill:none;fill-rule:nonzero;stroke:black;stroke-opacity:0.43;stroke-width:1px;"/>
            </g>
            <g transform="matrix(2,0,0,2,1041.65,399.413)">
                <path d="M0,99.5L400,99.5" style="fill:none;fill-rule:nonzero;stroke:black;stroke-opacity:0.43;stroke-width:1px;"/>
            </g>
            <g transform="matrix(2,0,0,2,1041.65,399.413)">
                <path d="M200,4L200,400" style="fill:none;fill-rule:nonzero;stroke:black;stroke-opacity:0.9;stroke-width:2px;"/>
            </g>
            <g transform="matrix(2,0,0,2,1041.65,399.413)">
                <path d="M200,2L204.141,17.455L195.859,17.455L200,2L204.141,17.455" style="fill-rule:nonzero;stroke:black;stroke-width:2px;stroke-linejoin:round;"/>
            </g>
            <g transform="matrix(2,0,0,2,1041.65,399.413)">
                <path d="M0,200L396,200" style="fill:none;fill-rule:nonzero;stroke:black;stroke-opacity:0.9;stroke-width:2px;"/>
            </g>
            <g transform="matrix(2,0,0,2,1041.65,399.413)">
                <path d="M398,200L382.545,204.141L382.545,195.859L398,200L382.545,204.141" style="fill-rule:nonzero;stroke:black;stroke-width:2px;stroke-linejoin:round;"/>
            </g>
            <g transform="matrix(2,0,0,2,1041.65,399.413)">
                <g transform="matrix(1,0,0,1,190.273,219.821)">
                    <text x="-5.42px" y="0px" style="font-family:'SFProDisplay-Semibold', 'SF Pro Display';font-weight:600;font-size:17px;">0</text>
                    <path d="M0.008,1.699C3.726,1.699 6.165,-1.171 6.165,-6.01C6.165,-10.853 3.709,-13.677 0.008,-13.677C-3.701,-13.677 -6.165,-10.832 -6.165,-6.001C-6.165,-1.153 -3.72,1.699 0.008,1.699ZM0.008,0.241C2.955,0.241 4.707,-2.175 4.707,-6.01C4.707,-9.845 2.938,-12.219 0.008,-12.219C-2.93,-12.219 -4.707,-9.828 -4.707,-6.001C-4.707,-2.158 -2.947,0.241 0.008,0.241ZM0.008,-1.511C-1.619,-1.511 -2.548,-3.171 -2.548,-6.01C-2.548,-8.799 -1.602,-10.467 0.008,-10.467C1.61,-10.467 2.548,-8.807 2.548,-6.001C2.548,-3.163 1.627,-1.511 0.008,-1.511ZM0.008,-2.969C-0.379,-2.969 -0.589,-3.294 -0.758,-3.728C-0.987,-4.318 -1.09,-5.089 -1.09,-6.01C-1.09,-6.909 -0.985,-7.667 -0.756,-8.249C-0.586,-8.68 -0.376,-9.009 0.008,-9.009C0.387,-9.009 0.59,-8.682 0.757,-8.254C0.986,-7.67 1.09,-6.909 1.09,-6.001C1.09,-5.08 0.988,-4.309 0.76,-3.72C0.595,-3.292 0.39,-2.969 0.008,-2.969Z" style="fill:white;"/>
                </g>
                <g transform="matrix(1,0,0,1,15.2852,219.821)">
                    <text x="-12.895px" y="0px" style="font-family:'SFProDisplay-Semibold', 'SF Pro Display';font-weight:600;font-size:17px;">-<tspan x="-5.881px " y="0px ">1</tspan>0</text>
                    <path d="M-6.454,-2.485C-5.648,-2.485 -4.996,-3.137 -4.996,-3.943L-4.996,-5.786C-4.996,-6.591 -5.648,-7.244 -6.454,-7.244L-11.907,-7.244C-12.713,-7.244 -13.366,-6.591 -13.366,-5.786L-13.366,-3.943C-13.366,-3.137 -12.713,-2.485 -11.907,-2.485L-6.454,-2.485ZM-6.454,-3.943L-6.454,-5.786L-11.907,-5.786L-11.907,-3.943L-6.454,-3.943Z" style="fill:white;"/>
                    <path d="M-3.43,-7.201L-4.292,-6.609C-4.739,-6.302 -5.318,-6.268 -5.797,-6.521C-6.276,-6.773 -6.576,-7.27 -6.576,-7.811L-6.576,-9.778C-6.576,-10.253 -6.345,-10.698 -5.956,-10.971L-2.827,-13.171C-2.581,-13.344 -2.288,-13.436 -1.988,-13.436L0.129,-13.436C0.934,-13.436 1.587,-12.783 1.587,-11.978L1.587,0C1.587,0.805 0.934,1.458 0.129,1.458L-1.971,1.458C-2.777,1.458 -3.43,0.805 -3.43,0L-3.43,-7.201ZM-1.971,0L0.129,0L0.129,-11.978L-1.988,-11.978L-5.117,-9.778L-5.117,-7.811L-2.021,-9.936L-1.971,-9.936L-1.971,0Z" style="fill:white;"/>
                    <path d="M7.483,1.699C11.201,1.699 13.64,-1.171 13.64,-6.01C13.64,-10.853 11.184,-13.677 7.483,-13.677C3.774,-13.677 1.31,-10.832 1.31,-6.001C1.31,-1.153 3.755,1.699 7.483,1.699ZM7.483,0.241C10.43,0.241 12.181,-2.175 12.181,-6.01C12.181,-9.845 10.413,-12.219 7.483,-12.219C4.545,-12.219 2.768,-9.828 2.768,-6.001C2.768,-2.158 4.528,0.241 7.483,0.241ZM7.483,-1.511C5.856,-1.511 4.927,-3.171 4.927,-6.01C4.927,-8.799 5.873,-10.467 7.483,-10.467C9.085,-10.467 10.023,-8.807 10.023,-6.001C10.023,-3.163 9.102,-1.511 7.483,-1.511ZM7.483,-2.969C7.095,-2.969 6.886,-3.294 6.717,-3.728C6.488,-4.318 6.385,-5.089 6.385,-6.01C6.385,-6.909 6.49,-7.667 6.719,-8.249C6.889,-8.68 7.099,-9.009 7.483,-9.009C7.862,-9.009 8.065,-8.682 8.232,-8.254C8.461,-7.67 8.565,-6.909 8.565,-6.001C8.565,-5.08 8.463,-4.309 8.235,-3.72C8.069,-3.292 7.865,-2.969 7.483,-2.969Z" style="fill:white;"/>
                </g>
                <g transform="matrix(1,0,0,1,97.1694,219.821)">
                    <text x="-8.903px" y="0px" style="font-family:'SFProDisplay-Semibold', 'SF Pro Display';font-weight:600;font-size:17px;">-5</text>
                    <path d="M-2.461,-2.485C-1.656,-2.485 -1.003,-3.137 -1.003,-3.943L-1.003,-5.786C-1.003,-6.591 -1.656,-7.244 -2.461,-7.244L-7.915,-7.244C-8.72,-7.244 -9.373,-6.591 -9.373,-5.786L-9.373,-3.943C-9.373,-3.137 -8.72,-2.485 -7.915,-2.485L-2.461,-2.485ZM-2.461,-3.943L-2.461,-5.786L-7.915,-5.786L-7.915,-3.943L-2.461,-3.943Z" style="fill:white;"/>
                    <path d="M-1.592,-4.348C-1.715,-4.588 -1.771,-4.859 -1.748,-5.133L-1.175,-12.098C-1.113,-12.854 -0.481,-13.436 0.278,-13.436L7.633,-13.436C8.438,-13.436 9.091,-12.783 9.091,-11.978L9.091,-10.227C9.091,-9.421 8.438,-8.768 7.633,-8.768L6.972,-8.768C8.698,-7.9 9.796,-6.134 9.796,-3.951C9.796,-0.637 7.386,1.699 3.839,1.699C0.496,1.699 -1.844,-0.425 -1.967,-3.308C-1.984,-3.691 -1.849,-4.065 -1.592,-4.348ZM3.839,0.241C6.495,0.241 8.338,-1.469 8.338,-3.951C8.338,-6.234 6.695,-7.894 4.412,-7.894C3.208,-7.894 2.22,-7.421 1.698,-6.616L1.656,-6.616L1.988,-10.227L7.633,-10.227L7.633,-11.978L0.278,-11.978L-0.295,-5.014L1.573,-5.014C2.03,-5.827 2.835,-6.284 3.864,-6.284C5.275,-6.284 6.271,-5.296 6.271,-3.893C6.271,-2.482 5.283,-1.494 3.856,-1.494C2.594,-1.494 1.631,-2.25 1.498,-3.37L-0.51,-3.37C-0.419,-1.245 1.374,0.241 3.839,0.241ZM2.738,-4.137C2.848,-3.961 2.921,-3.759 2.946,-3.542C2.994,-3.139 3.402,-2.952 3.856,-2.952C4.419,-2.952 4.813,-3.337 4.813,-3.893C4.813,-4.443 4.417,-4.825 3.864,-4.825C3.413,-4.825 3.045,-4.656 2.845,-4.3C2.813,-4.243 2.777,-4.188 2.738,-4.137Z" style="fill:white;"/>
                </g>
                <g transform="matrix(1,0,0,1,300,219.821)">
                    <text x="-5.188px" y="0px" style="font-family:'SFProDisplay-Semibold', 'SF Pro Display';font-weight:600;font-size:17px;">5</text>
                    <path d="M-5.306,-4.348C-5.43,-4.588 -5.485,-4.859 -5.463,-5.133L-4.89,-12.098C-4.828,-12.854 -4.196,-13.436 -3.437,-13.436L3.918,-13.436C4.723,-13.436 5.376,-12.783 5.376,-11.978L5.376,-10.227C5.376,-9.421 4.723,-8.768 3.918,-8.768L3.257,-8.768C4.984,-7.9 6.082,-6.134 6.082,-3.951C6.082,-0.637 3.671,1.699 0.125,1.699C-3.219,1.699 -5.558,-0.425 -5.682,-3.308C-5.699,-3.691 -5.563,-4.065 -5.306,-4.348ZM0.125,0.241C2.781,0.241 4.624,-1.469 4.624,-3.951C4.624,-6.234 2.98,-7.894 0.697,-7.894C-0.506,-7.894 -1.494,-7.421 -2.017,-6.616L-2.059,-6.616L-1.727,-10.227L3.918,-10.227L3.918,-11.978L-3.437,-11.978L-4.009,-5.014L-2.142,-5.014C-1.685,-5.827 -0.88,-6.284 0.149,-6.284C1.561,-6.284 2.557,-5.296 2.557,-3.893C2.557,-2.482 1.569,-1.494 0.141,-1.494C-1.121,-1.494 -2.083,-2.25 -2.216,-3.37L-4.225,-3.37C-4.134,-1.245 -2.341,0.241 0.125,0.241ZM-0.976,-4.137C-0.867,-3.961 -0.794,-3.759 -0.768,-3.542C-0.72,-3.139 -0.313,-2.952 0.141,-2.952C0.704,-2.952 1.098,-3.337 1.098,-3.893C1.098,-4.443 0.703,-4.825 0.149,-4.825C-0.301,-4.825 -0.67,-4.656 -0.87,-4.3C-0.902,-4.243 -0.937,-4.188 -0.976,-4.137Z" style="fill:white;"/>
                </g>
                <g transform="matrix(1,0,0,1,387.326,219.821)">
                    <text x="-9.388px" y="0px" style="font-family:'SFProDisplay-Semibold', 'SF Pro Display';font-weight:600;font-size:17px;">10</text>
                    <path d="M-6.937,-7.201L-7.799,-6.609C-8.246,-6.302 -8.825,-6.268 -9.304,-6.521C-9.783,-6.773 -10.083,-7.27 -10.083,-7.811L-10.083,-9.778C-10.083,-10.253 -9.852,-10.698 -9.463,-10.971L-6.334,-13.171C-6.088,-13.344 -5.795,-13.436 -5.495,-13.436L-3.378,-13.436C-2.573,-13.436 -1.92,-12.783 -1.92,-11.978L-1.92,0C-1.92,0.805 -2.573,1.458 -3.378,1.458L-5.479,1.458C-6.284,1.458 -6.937,0.805 -6.937,0L-6.937,-7.201ZM-5.479,0L-3.378,0L-3.378,-11.978L-5.495,-11.978L-8.625,-9.778L-8.625,-7.811L-5.528,-9.936L-5.479,-9.936L-5.479,0Z" style="fill:white;"/>
                    <path d="M3.976,1.699C7.694,1.699 10.133,-1.171 10.133,-6.01C10.133,-10.853 7.677,-13.677 3.976,-13.677C0.267,-13.677 -2.197,-10.832 -2.197,-6.001C-2.197,-1.153 0.248,1.699 3.976,1.699ZM3.976,0.241C6.923,0.241 8.674,-2.175 8.674,-6.01C8.674,-9.845 6.906,-12.219 3.976,-12.219C1.038,-12.219 -0.739,-9.828 -0.739,-6.001C-0.739,-2.158 1.021,0.241 3.976,0.241ZM3.976,-1.511C2.349,-1.511 1.419,-3.171 1.419,-6.01C1.419,-8.799 2.366,-10.467 3.976,-10.467C5.578,-10.467 6.516,-8.807 6.516,-6.001C6.516,-3.163 5.595,-1.511 3.976,-1.511ZM3.976,-2.969C3.588,-2.969 3.379,-3.294 3.21,-3.728C2.981,-4.318 2.878,-5.089 2.878,-6.01C2.878,-6.909 2.983,-7.667 3.212,-8.249C3.382,-8.68 3.591,-9.009 3.976,-9.009C4.355,-9.009 4.558,-8.682 4.725,-8.254C4.954,-7.67 5.058,-6.909 5.058,-6.001C5.058,-5.08 4.956,-4.309 4.728,-3.72C4.562,-3.292 4.358,-2.969 3.976,-2.969Z" style="fill:white;"/>
                </g>
                <g transform="matrix(1,0,0,1,182.715,393.124)">
                    <text x="-12.895px" y="0px" style="font-family:'SFProDisplay-Semibold', 'SF Pro Display';font-weight:600;font-size:17px;">-<tspan x="-5.881px " y="0px ">1</tspan>0</text>
                    <path d="M-6.454,-2.485C-5.648,-2.485 -4.996,-3.137 -4.996,-3.943L-4.996,-5.786C-4.996,-6.591 -5.648,-7.244 -6.454,-7.244L-11.907,-7.244C-12.713,-7.244 -13.366,-6.591 -13.366,-5.786L-13.366,-3.943C-13.366,-3.137 -12.713,-2.485 -11.907,-2.485L-6.454,-2.485ZM-6.454,-3.943L-6.454,-5.786L-11.907,-5.786L-11.907,-3.943L-6.454,-3.943Z" style="fill:white;"/>
                    <path d="M-3.43,-7.201L-4.292,-6.609C-4.739,-6.302 -5.318,-6.268 -5.797,-6.521C-6.276,-6.773 -6.576,-7.27 -6.576,-7.811L-6.576,-9.778C-6.576,-10.253 -6.345,-10.698 -5.956,-10.971L-2.827,-13.171C-2.581,-13.344 -2.288,-13.436 -1.988,-13.436L0.129,-13.436C0.934,-13.436 1.587,-12.783 1.587,-11.978L1.587,0C1.587,0.805 0.934,1.458 0.129,1.458L-1.971,1.458C-2.777,1.458 -3.43,0.805 -3.43,0L-3.43,-7.201ZM-1.971,0L0.129,0L0.129,-11.978L-1.988,-11.978L-5.117,-9.778L-5.117,-7.811L-2.021,-9.936L-1.971,-9.936L-1.971,0Z" style="fill:white;"/>
                    <path d="M7.483,1.699C11.201,1.699 13.64,-1.171 13.64,-6.01C13.64,-10.853 11.184,-13.677 7.483,-13.677C3.774,-13.677 1.31,-10.832 1.31,-6.001C1.31,-1.153 3.755,1.699 7.483,1.699ZM7.483,0.241C10.43,0.241 12.181,-2.175 12.181,-6.01C12.181,-9.845 10.413,-12.219 7.483,-12.219C4.545,-12.219 2.768,-9.828 2.768,-6.001C2.768,-2.158 4.528,0.241 7.483,0.241ZM7.483,-1.511C5.856,-1.511 4.927,-3.171 4.927,-6.01C4.927,-8.799 5.873,-10.467 7.483,-10.467C9.085,-10.467 10.023,-8.807 10.023,-6.001C10.023,-3.163 9.102,-1.511 7.483,-1.511ZM7.483,-2.969C7.095,-2.969 6.886,-3.294 6.717,-3.728C6.488,-4.318 6.385,-5.089 6.385,-6.01C6.385,-6.909 6.49,-7.667 6.719,-8.249C6.889,-8.68 7.099,-9.009 7.483,-9.009C7.862,-9.009 8.065,-8.682 8.232,-8.254C8.461,-7.67 8.565,-6.909 8.565,-6.001C8.565,-5.08 8.463,-4.309 8.235,-3.72C8.069,-3.292 7.865,-2.969 7.483,-2.969Z" style="fill:white;"/>
                </g>
                <g transform="matrix(1,0,0,1,187.442,304.624)">
                    <text x="-8.903px" y="0px" style="font-family:'SFProDisplay-Semibold', 'SF Pro Display';font-weight:600;font-size:17px;">-5</text>
                    <path d="M-2.461,-2.485C-1.656,-2.485 -1.003,-3.137 -1.003,-3.943L-1.003,-5.786C-1.003,-6.591 -1.656,-7.244 -2.461,-7.244L-7.915,-7.244C-8.72,-7.244 -9.373,-6.591 -9.373,-5.786L-9.373,-3.943C-9.373,-3.137 -8.72,-2.485 -7.915,-2.485L-2.461,-2.485ZM-2.461,-3.943L-2.461,-5.786L-7.915,-5.786L-7.915,-3.943L-2.461,-3.943Z" style="fill:white;"/>
                    <path d="M-1.592,-4.348C-1.715,-4.588 -1.771,-4.859 -1.748,-5.133L-1.175,-12.098C-1.113,-12.854 -0.481,-13.436 0.278,-13.436L7.633,-13.436C8.438,-13.436 9.091,-12.783 9.091,-11.978L9.091,-10.227C9.091,-9.421 8.438,-8.768 7.633,-8.768L6.972,-8.768C8.698,-7.9 9.796,-6.134 9.796,-3.951C9.796,-0.637 7.386,1.699 3.839,1.699C0.496,1.699 -1.844,-0.425 -1.967,-3.308C-1.984,-3.691 -1.849,-4.065 -1.592,-4.348ZM3.839,0.241C6.495,0.241 8.338,-1.469 8.338,-3.951C8.338,-6.234 6.695,-7.894 4.412,-7.894C3.208,-7.894 2.22,-7.421 1.698,-6.616L1.656,-6.616L1.988,-10.227L7.633,-10.227L7.633,-11.978L0.278,-11.978L-0.295,-5.014L1.573,-5.014C2.03,-5.827 2.835,-6.284 3.864,-6.284C5.275,-6.284 6.271,-5.296 6.271,-3.893C6.271,-2.482 5.283,-1.494 3.856,-1.494C2.594,-1.494 1.631,-2.25 1.498,-3.37L-0.51,-3.37C-0.419,-1.245 1.374,0.241 3.839,0.241ZM2.738,-4.137C2.848,-3.961 2.921,-3.759 2.946,-3.542C2.994,-3.139 3.402,-2.952 3.856,-2.952C4.419,-2.952 4.813,-3.337 4.813,-3.893C4.813,-4.443 4.417,-4.825 3.864,-4.825C3.413,-4.825 3.045,-4.656 2.845,-4.3C2.813,-4.243 2.777,-4.188 2.738,-4.137Z" style="fill:white;"/>
                </g>
                <g transform="matrix(1,0,0,1,190.273,104.624)">
                    <text x="-5.188px" y="0px" style="font-family:'SFProDisplay-Semibold', 'SF Pro Display';font-weight:600;font-size:17px;">5</text>
                    <path d="M-5.306,-4.348C-5.43,-4.588 -5.485,-4.859 -5.463,-5.133L-4.89,-12.098C-4.828,-12.854 -4.196,-13.436 -3.437,-13.436L3.918,-13.436C4.723,-13.436 5.376,-12.783 5.376,-11.978L5.376,-10.227C5.376,-9.421 4.723,-8.768 3.918,-8.768L3.257,-8.768C4.984,-7.9 6.082,-6.134 6.082,-3.951C6.082,-0.637 3.671,1.699 0.125,1.699C-3.219,1.699 -5.558,-0.425 -5.682,-3.308C-5.699,-3.691 -5.563,-4.065 -5.306,-4.348ZM0.125,0.241C2.781,0.241 4.624,-1.469 4.624,-3.951C4.624,-6.234 2.98,-7.894 0.697,-7.894C-0.506,-7.894 -1.494,-7.421 -2.017,-6.616L-2.059,-6.616L-1.727,-10.227L3.918,-10.227L3.918,-11.978L-3.437,-11.978L-4.009,-5.014L-2.142,-5.014C-1.685,-5.827 -0.88,-6.284 0.149,-6.284C1.561,-6.284 2.557,-5.296 2.557,-3.893C2.557,-2.482 1.569,-1.494 0.141,-1.494C-1.121,-1.494 -2.083,-2.25 -2.216,-3.37L-4.225,-3.37C-4.134,-1.245 -2.341,0.241 0.125,0.241ZM-0.976,-4.137C-0.867,-3.961 -0.794,-3.759 -0.768,-3.542C-0.72,-3.139 -0.313,-2.952 0.141,-2.952C0.704,-2.952 1.098,-3.337 1.098,-3.893C1.098,-4.443 0.703,-4.825 0.149,-4.825C-0.301,-4.825 -0.67,-4.656 -0.87,-4.3C-0.902,-4.243 -0.937,-4.188 -0.976,-4.137Z" style="fill:white;"/>
                </g>
                <g transform="matrix(1,0,0,1,185.545,16.124)">
                    <text x="-9.388px" y="0px" style="font-family:'SFProDisplay-Semibold', 'SF Pro Display';font-weight:600;font-size:17px;">10</text>
                    <path d="M-6.937,-7.201L-7.799,-6.609C-8.246,-6.302 -8.825,-6.268 -9.304,-6.521C-9.783,-6.773 -10.083,-7.27 -10.083,-7.811L-10.083,-9.778C-10.083,-10.253 -9.852,-10.698 -9.463,-10.971L-6.334,-13.171C-6.088,-13.344 -5.795,-13.436 -5.495,-13.436L-3.378,-13.436C-2.573,-13.436 -1.92,-12.783 -1.92,-11.978L-1.92,0C-1.92,0.805 -2.573,1.458 -3.378,1.458L-5.479,1.458C-6.284,1.458 -6.937,0.805 -6.937,0L-6.937,-7.201ZM-5.479,0L-3.378,0L-3.378,-11.978L-5.495,-11.978L-8.625,-9.778L-8.625,-7.811L-5.528,-9.936L-5.479,-9.936L-5.479,0Z" style="fill:white;"/>
                    <path d="M3.976,1.699C7.694,1.699 10.133,-1.171 10.133,-6.01C10.133,-10.853 7.677,-13.677 3.976,-13.677C0.267,-13.677 -2.197,-10.832 -2.197,-6.001C-2.197,-1.153 0.248,1.699 3.976,1.699ZM3.976,0.241C6.923,0.241 8.674,-2.175 8.674,-6.01C8.674,-9.845 6.906,-12.219 3.976,-12.219C1.038,-12.219 -0.739,-9.828 -0.739,-6.001C-0.739,-2.158 1.021,0.241 3.976,0.241ZM3.976,-1.511C2.349,-1.511 1.419,-3.171 1.419,-6.01C1.419,-8.799 2.366,-10.467 3.976,-10.467C5.578,-10.467 6.516,-8.807 6.516,-6.001C6.516,-3.163 5.595,-1.511 3.976,-1.511ZM3.976,-2.969C3.588,-2.969 3.379,-3.294 3.21,-3.728C2.981,-4.318 2.878,-5.089 2.878,-6.01C2.878,-6.909 2.983,-7.667 3.212,-8.249C3.382,-8.68 3.591,-9.009 3.976,-9.009C4.355,-9.009 4.558,-8.682 4.725,-8.254C4.954,-7.67 5.058,-6.909 5.058,-6.001C5.058,-5.08 4.956,-4.309 4.728,-3.72C4.562,-3.292 4.358,-2.969 3.976,-2.969Z" style="fill:white;"/>
                </g>
            </g>
            <g transform="matrix(2,0,0,2,1041.65,399.413)">
                <path d="M-0.5,199.5L199.598,199.402L399.5,-0.5" style="fill:none;fill-rule:nonzero;stroke:rgb(255,146,155);stroke-width:6.25px;stroke-linecap:round;stroke-linejoin:round;"/>
            </g>
            <g transform="matrix(1.90005,0,0,1.90005,-1626.16,-778.961)">
                <text x="1805.79px" y="877.337px" style="font-family:'TimesNewRomanPS-ItalicMT', 'Times New Roman', serif;font-style:italic;font-size:35.087px;">x</text>
            </g>
            <g transform="matrix(1.90005,0,0,1.90005,-2086.64,-1239.11)">
                <text x="1805.79px" y="877.337px" style="font-family:'TimesNewRomanPS-ItalicMT', 'Times New Roman', serif;font-style:italic;font-size:35.087px;">y</text>
            </g>
        </g>
    </g>
</svg>
